<svg xmlns="http://www.w3.org/2000/svg" version="1.1" xmlns:xlink="http://www.w3.org/1999/xlink" xmlns:svgjs="http://svgjs.com/svgjs" width="1440" height="560" preserveAspectRatio="none" viewBox="0 0 1440 560"><g mask="url(&quot;#SvgjsMask1012&quot;)" fill="none"><rect width="1440" height="560" x="0" y="0" fill="rgba(3, 62, 140, 1)"></rect><path d="M140.42 341.05L141.93 341.05L141.93 387.52L140.42 387.52z" stroke="rgba(0, 0, 0, 1)"></path><path d="M736.19 32.23a43.57 43.57 0 1 0-83.7-24.25z" fill="rgba(242, 110, 34, 1)"></path><path d="M1044 588.25a48.79 48.79 0 1 0-78.44-58.05z" fill="rgba(191, 87, 27, 1)"></path><path d="M1310.63 320.58L1354.8 320.58L1354.8 354.66L1310.63 354.66z" fill="rgba(242, 110, 34, 1)"></path><path d="M151.88 287.4a37.28 37.28 0 1 0 43.27-60.72z" stroke="rgba(242, 110, 34, 1)"></path><path d="M1437.75 30.38L1490.51 30.38L1490.51 83.14L1437.75 83.14z" stroke="rgba(0, 0, 0, 1)"></path><path d="M1171.44 120.58a30.3 30.3 0 1 0 40.46 45.11z" fill="rgba(191, 87, 27, 1)"></path><path d="M112.6 500.62 a0.59 0.59 0 1 0 1.18 0 a0.59 0.59 0 1 0 -1.18 0z" stroke="rgba(0, 0, 0, 1)"></path><path d="M1019.47 41.9L1073.08 41.9L1073.08 71.8L1019.47 71.8z" fill="rgba(191, 87, 27, 1)"></path><path d="M935.83 31.32 a13.99 13.99 0 1 0 27.98 0 a13.99 13.99 0 1 0 -27.98 0z" stroke="rgba(242, 110, 34, 1)"></path><path d="M1348.65 81.16 a41.45 41.45 0 1 0 82.9 0 a41.45 41.45 0 1 0 -82.9 0z" stroke="rgba(191, 87, 27, 1)"></path><path d="M1088.14 29.69L1135.18 29.69L1135.18 76.73L1088.14 76.73z" stroke="rgba(191, 87, 27, 1)"></path><path d="M1098.45 182.97L1134.82 182.97L1134.82 197.8L1098.45 197.8z" fill="rgba(0, 0, 0, 1)"></path><path d="M613.79 459.67L642.27 459.67L642.27 486.13L613.79 486.13z" stroke="rgba(0, 0, 0, 1)"></path><path d="M897.99 437.2 a37.61 37.61 0 1 0 75.22 0 a37.61 37.61 0 1 0 -75.22 0z" stroke="rgba(242, 110, 34, 1)"></path><path d="M575.7 344.8a50.82 50.82 0 1 0 20.1 99.63z" stroke="rgba(242, 110, 34, 1)"></path><path d="M1419.49 12.58a15.43 15.43 0 1 0 29.04-10.42z" stroke="rgba(0, 0, 0, 1)"></path><path d="M1070.47 185.04L1113.42 185.04L1113.42 234.36L1070.47 234.36z" stroke="rgba(191, 87, 27, 1)"></path><path d="M538.36 538.82a45.89 45.89 0 1 0-91.56 6.36z" fill="rgba(0, 0, 0, 1)"></path><path d="M185.54 500.25 a0.4 0.4 0 1 0 0.8 0 a0.4 0.4 0 1 0 -0.8 0z" stroke="rgba(0, 0, 0, 1)"></path><path d="M114.35 25.3 a2.83 2.83 0 1 0 5.66 0 a2.83 2.83 0 1 0 -5.66 0z" fill="rgba(191, 87, 27, 1)"></path><path d="M1299.46 90.52a12.82 12.82 0 1 0 24.3 8.2z" stroke="rgba(242, 110, 34, 1)"></path><path d="M335.37 475.94a55.65 55.65 0 1 0 105.56 35.27z" fill="rgba(0, 0, 0, 1)"></path><path d="M994.19 470.01L1037.55 470.01L1037.55 513.37L994.19 513.37z" stroke="rgba(0, 0, 0, 1)"></path><path d="M727.12 529.73a15.81 15.81 0 1 0-29.19 12.14z" fill="rgba(242, 110, 34, 1)"></path><path d="M778.13 102.33 a13.87 13.87 0 1 0 27.74 0 a13.87 13.87 0 1 0 -27.74 0z" fill="rgba(0, 0, 0, 1)"></path><path d="M515.59 268.79a31.74 31.74 0 1 0 56.64 28.66z" stroke="rgba(242, 110, 34, 1)"></path><path d="M663.68 172.12L695.05 172.12L695.05 172.32L663.68 172.32z" stroke="rgba(242, 110, 34, 1)"></path><path d="M812.58 202.96a53.35 53.35 0 1 0-79.17 71.53z" stroke="rgba(0, 0, 0, 1)"></path><path d="M730.48 219.15a26.5 26.5 0 1 0 28.24 44.84z" fill="rgba(242, 110, 34, 1)"></path><path d="M1292.29 345L1307.67 345L1307.67 360.38L1292.29 360.38z" stroke="rgba(0, 0, 0, 1)"></path><path d="M1091.47 406.5L1096.36 406.5L1096.36 427.81L1091.47 427.81z" stroke="rgba(191, 87, 27, 1)"></path><path d="M302.65 91.48L326.3 91.48L326.3 115.13L302.65 115.13z" stroke="rgba(242, 110, 34, 1)"></path></g><defs><mask id="SvgjsMask1012"><rect width="1440" height="560" fill="#ffffff"></rect></mask></defs></svg>