<svg id="visual" viewBox="0 0 900 600" width="900" height="600" xmlns="http://www.w3.org/2000/svg" xmlns:xlink="http://www.w3.org/1999/xlink" version="1.1"><g stroke-width="1" stroke-linejoin="bevel"><path d="M495 294L515 372L564 328Z" fill="#003a80" stroke="#003a80"></path><path d="M515 372L602 383L564 328Z" fill="#021626" stroke="#021626"></path><path d="M689 329L571 219L564 328Z" fill="#003269" stroke="#003269"></path><path d="M564 328L571 219L495 294Z" fill="#002952" stroke="#002952"></path><path d="M390 218L370 268L495 294Z" fill="#002d5d" stroke="#002d5d"></path><path d="M495 294L373 406L515 372Z" fill="#002952" stroke="#002952"></path><path d="M370 268L373 406L495 294Z" fill="#003675" stroke="#003675"></path><path d="M598 505L666 424L602 383Z" fill="#003269" stroke="#003269"></path><path d="M571 219L493 164L495 294Z" fill="#021626" stroke="#021626"></path><path d="M602 383L689 329L564 328Z" fill="#003675" stroke="#003675"></path><path d="M493 164L390 218L495 294Z" fill="#033e8c" stroke="#033e8c"></path><path d="M598 505L602 383L515 372Z" fill="#003675" stroke="#003675"></path><path d="M602 383L666 424L689 329Z" fill="#002547" stroke="#002547"></path><path d="M508 537L598 505L515 372Z" fill="#00203c" stroke="#00203c"></path><path d="M370 480L508 537L515 372Z" fill="#003269" stroke="#003269"></path><path d="M390 218L317 282L370 268Z" fill="#002d5d" stroke="#002d5d"></path><path d="M370 268L317 282L373 406Z" fill="#002952" stroke="#002952"></path><path d="M320 498L370 480L373 406Z" fill="#033e8c" stroke="#033e8c"></path><path d="M373 406L370 480L515 372Z" fill="#002d5d" stroke="#002d5d"></path><path d="M493 164L378 96L390 218Z" fill="#00203c" stroke="#00203c"></path><path d="M390 218L261 232L317 282Z" fill="#002952" stroke="#002952"></path><path d="M636 125L480 109L493 164Z" fill="#001b31" stroke="#001b31"></path><path d="M636 125L493 164L571 219Z" fill="#033e8c" stroke="#033e8c"></path><path d="M598 505L680 491L666 424Z" fill="#002547" stroke="#002547"></path><path d="M666 424L763 338L689 329Z" fill="#033e8c" stroke="#033e8c"></path><path d="M667 600L680 491L598 505Z" fill="#002952" stroke="#002952"></path><path d="M689 329L695 181L571 219Z" fill="#00101c" stroke="#00101c"></path><path d="M695 181L636 125L571 219Z" fill="#002952" stroke="#002952"></path><path d="M806 432L763 338L666 424Z" fill="#003675" stroke="#003675"></path><path d="M689 329L779 221L695 181Z" fill="#002d5d" stroke="#002d5d"></path><path d="M262 375L320 498L373 406Z" fill="#021626" stroke="#021626"></path><path d="M425 600L485 600L508 537Z" fill="#033e8c" stroke="#033e8c"></path><path d="M317 282L262 375L373 406Z" fill="#002952" stroke="#002952"></path><path d="M411 0L378 96L480 109Z" fill="#002952" stroke="#002952"></path><path d="M480 109L378 96L493 164Z" fill="#033e8c" stroke="#033e8c"></path><path d="M317 282L227 261L262 375Z" fill="#001b31" stroke="#001b31"></path><path d="M425 600L508 537L370 480Z" fill="#00203c" stroke="#00203c"></path><path d="M508 537L577 600L598 505Z" fill="#003269" stroke="#003269"></path><path d="M485 600L577 600L508 537Z" fill="#00101c" stroke="#00101c"></path><path d="M378 96L261 232L390 218Z" fill="#003675" stroke="#003675"></path><path d="M695 181L722 124L636 125Z" fill="#00203c" stroke="#00203c"></path><path d="M763 338L779 221L689 329Z" fill="#002547" stroke="#002547"></path><path d="M779 221L722 124L695 181Z" fill="#033e8c" stroke="#033e8c"></path><path d="M637 0L489 0L480 109Z" fill="#00101c" stroke="#00101c"></path><path d="M320 498L425 600L370 480Z" fill="#003675" stroke="#003675"></path><path d="M227 261L224 378L262 375Z" fill="#003269" stroke="#003269"></path><path d="M262 375L224 378L320 498Z" fill="#033e8c" stroke="#033e8c"></path><path d="M198 174L227 261L261 232Z" fill="#002952" stroke="#002952"></path><path d="M261 232L227 261L317 282Z" fill="#002d5d" stroke="#002d5d"></path><path d="M822 495L806 432L680 491Z" fill="#033e8c" stroke="#033e8c"></path><path d="M680 491L806 432L666 424Z" fill="#00101c" stroke="#00101c"></path><path d="M763 338L900 293L779 221Z" fill="#002952" stroke="#002952"></path><path d="M577 600L667 600L598 505Z" fill="#003269" stroke="#003269"></path><path d="M637 0L480 109L636 125Z" fill="#003a80" stroke="#003a80"></path><path d="M830 600L822 495L680 491Z" fill="#003a80" stroke="#003a80"></path><path d="M900 170L801 99L779 221Z" fill="#00203c" stroke="#00203c"></path><path d="M489 0L411 0L480 109Z" fill="#033e8c" stroke="#033e8c"></path><path d="M378 96L271 83L261 232Z" fill="#033e8c" stroke="#033e8c"></path><path d="M702 0L637 0L636 125Z" fill="#033e8c" stroke="#033e8c"></path><path d="M307 0L271 83L378 96Z" fill="#002547" stroke="#002547"></path><path d="M271 83L198 174L261 232Z" fill="#033e8c" stroke="#033e8c"></path><path d="M227 261L69 264L224 378Z" fill="#00101c" stroke="#00101c"></path><path d="M779 221L801 99L722 124Z" fill="#00203c" stroke="#00203c"></path><path d="M722 124L702 0L636 125Z" fill="#002952" stroke="#002952"></path><path d="M900 293L763 338L900 386Z" fill="#00101c" stroke="#00101c"></path><path d="M171 513L269 600L320 498Z" fill="#001b31" stroke="#001b31"></path><path d="M320 498L269 600L425 600Z" fill="#003675" stroke="#003675"></path><path d="M801 99L702 0L722 124Z" fill="#003a80" stroke="#003a80"></path><path d="M900 386L763 338L806 432Z" fill="#003269" stroke="#003269"></path><path d="M900 465L900 386L806 432Z" fill="#003269" stroke="#003269"></path><path d="M411 0L307 0L378 96Z" fill="#021626" stroke="#021626"></path><path d="M271 83L163 138L198 174Z" fill="#003269" stroke="#003269"></path><path d="M70 392L171 513L224 378Z" fill="#003a80" stroke="#003a80"></path><path d="M224 378L171 513L320 498Z" fill="#003675" stroke="#003675"></path><path d="M900 600L900 465L822 495Z" fill="#003675" stroke="#003675"></path><path d="M822 495L900 465L806 432Z" fill="#00101c" stroke="#00101c"></path><path d="M121 68L163 138L271 83Z" fill="#002952" stroke="#002952"></path><path d="M198 174L113 226L227 261Z" fill="#003675" stroke="#003675"></path><path d="M171 513L216 600L269 600Z" fill="#002d5d" stroke="#002d5d"></path><path d="M667 600L830 600L680 491Z" fill="#002952" stroke="#002952"></path><path d="M900 293L900 170L779 221Z" fill="#003269" stroke="#003269"></path><path d="M801 99L808 0L702 0Z" fill="#021626" stroke="#021626"></path><path d="M163 138L113 226L198 174Z" fill="#003a80" stroke="#003a80"></path><path d="M307 0L234 0L271 83Z" fill="#00101c" stroke="#00101c"></path><path d="M0 212L69 264L113 226Z" fill="#033e8c" stroke="#033e8c"></path><path d="M900 79L808 0L801 99Z" fill="#001b31" stroke="#001b31"></path><path d="M900 170L900 79L801 99Z" fill="#002547" stroke="#002547"></path><path d="M69 264L70 392L224 378Z" fill="#00203c" stroke="#00203c"></path><path d="M171 513L80 600L216 600Z" fill="#003a80" stroke="#003a80"></path><path d="M121 68L113 226L163 138Z" fill="#002952" stroke="#002952"></path><path d="M113 226L69 264L227 261Z" fill="#002d5d" stroke="#002d5d"></path><path d="M70 392L107 522L171 513Z" fill="#003a80" stroke="#003a80"></path><path d="M830 600L900 600L822 495Z" fill="#003675" stroke="#003675"></path><path d="M234 0L121 68L271 83Z" fill="#002d5d" stroke="#002d5d"></path><path d="M900 79L900 0L808 0Z" fill="#002952" stroke="#002952"></path><path d="M0 506L80 600L107 522Z" fill="#003a80" stroke="#003a80"></path><path d="M107 522L80 600L171 513Z" fill="#002547" stroke="#002547"></path><path d="M0 212L0 321L69 264Z" fill="#003a80" stroke="#003a80"></path><path d="M69 264L0 321L70 392Z" fill="#002952" stroke="#002952"></path><path d="M70 392L0 506L107 522Z" fill="#021626" stroke="#021626"></path><path d="M0 321L0 374L70 392Z" fill="#001b31" stroke="#001b31"></path><path d="M0 85L0 212L113 226Z" fill="#00101c" stroke="#00101c"></path><path d="M0 374L0 506L70 392Z" fill="#033e8c" stroke="#033e8c"></path><path d="M234 0L74 0L121 68Z" fill="#033e8c" stroke="#033e8c"></path><path d="M121 68L0 85L113 226Z" fill="#002547" stroke="#002547"></path><path d="M74 0L0 85L121 68Z" fill="#003269" stroke="#003269"></path><path d="M0 506L0 600L80 600Z" fill="#00101c" stroke="#00101c"></path><path d="M74 0L0 0L0 85Z" fill="#00101c" stroke="#00101c"></path></g></svg>